<svg width="88" height="79" viewBox="0 0 88 79" fill="none" xmlns="http://www.w3.org/2000/svg">
<g filter="url(#filter0_d_1_3456)">
<path d="M82.9262 2.6486C82.8258 2.23362 82.5924 1.85322 82.2542 1.5531C81.9159 1.25298 81.4872 1.04593 81.0195 0.956822C75.9869 0 72.0499 0 68.1269 0C51.9976 0 42.3231 7.65458 35.104 17.7498H18.8184C17.4276 17.7508 16.0644 18.0949 14.8812 18.7435C13.6981 19.3922 12.7414 20.3199 12.1182 21.4231L4.3942 35.1237C4.10896 35.6312 3.97462 36.195 4.00395 36.7616C4.03328 37.3281 4.22529 37.8786 4.56177 38.3608C4.89825 38.843 5.36804 39.2409 5.92653 39.5167C6.48503 39.7926 7.11371 39.9372 7.75292 39.9369H23.9713L20.4595 43.0529C19.5218 43.885 18.995 45.0135 18.995 46.1903C18.995 47.367 19.5218 48.4955 20.4595 49.3277L28.4147 56.3874C28.8791 56.7995 29.4305 57.1265 30.0374 57.3495C30.6443 57.5726 31.2947 57.6874 31.9516 57.6874C32.6085 57.6874 33.2589 57.5726 33.8658 57.3495C34.4727 57.1265 35.0241 56.7995 35.4885 56.3874L39.0004 53.2714V67.6709C39.0002 68.2379 39.1632 68.7955 39.4741 69.2908C39.7849 69.7861 40.2332 70.2028 40.7764 70.5013C41.3197 70.7998 41.9399 70.9703 42.5782 70.9965C43.2165 71.0226 43.8517 70.9037 44.4237 70.6509L59.8497 63.802C61.0951 63.2501 62.1424 62.401 62.8741 61.3501C63.6057 60.2993 63.9926 59.0883 63.9915 57.8531V43.3746C75.3367 36.9541 83.9968 28.3427 83.9968 14.1027C84.0125 10.6082 84.0125 7.11377 82.9262 2.6486ZM64.0071 23.2965C62.7706 23.2965 61.5619 22.9712 60.5338 22.3617C59.5058 21.7523 58.7045 20.886 58.2313 19.8724C57.7581 18.8589 57.6343 17.7436 57.8755 16.6676C58.1168 15.5917 58.7122 14.6033 59.5865 13.8276C60.4608 13.0518 61.5747 12.5236 62.7874 12.3095C64.0002 12.0955 65.2572 12.2054 66.3995 12.6252C67.5419 13.045 68.5182 13.7559 69.2052 14.6681C69.8921 15.5803 70.2588 16.6527 70.2588 17.7498C70.2588 19.2209 69.6001 20.6317 68.4277 21.6719C67.2553 22.7122 65.6651 23.2965 64.0071 23.2965Z" fill="url(#paint0_linear_1_3456)"/>
</g>
<defs>
<filter id="filter0_d_1_3456" x="0" y="0" width="88" height="79" filterUnits="userSpaceOnUse" color-interpolation-filters="sRGB">
<feFlood flood-opacity="0" result="BackgroundImageFix"/>
<feColorMatrix in="SourceAlpha" type="matrix" values="0 0 0 0 0 0 0 0 0 0 0 0 0 0 0 0 0 0 127 0" result="hardAlpha"/>
<feOffset dy="4"/>
<feGaussianBlur stdDeviation="2"/>
<feComposite in2="hardAlpha" operator="out"/>
<feColorMatrix type="matrix" values="0 0 0 0 0 0 0 0 0 0 0 0 0 0 0 0 0 0 0.25 0"/>
<feBlend mode="normal" in2="BackgroundImageFix" result="effect1_dropShadow_1_3456"/>
<feBlend mode="normal" in="SourceGraphic" in2="effect1_dropShadow_1_3456" result="shape"/>
</filter>
<linearGradient id="paint0_linear_1_3456" x1="44" y1="2.18915e-06" x2="104.068" y2="92.1818" gradientUnits="userSpaceOnUse">
<stop stop-color="#8BD7DC"/>
<stop offset="1" stop-color="#1246A9"/>
</linearGradient>
</defs>
</svg>
